<svg id="圖層_1" data-name="圖層 1" xmlns="http://www.w3.org/2000/svg" viewBox="0 0 283.46 283.46"><title>icon</title><circle cx="138.62" cy="68.69" r="27.23"/><path d="M135.51,102.14a23.75,23.75,0,0,0-23.75,23.75v58.24h53.71V125.89a23.75,23.75,0,0,0-23.75-23.75Z"/><path d="M88.06,169.88a7.49,7.49,0,0,0,1.88-4.2l15.55-44.11a7.5,7.5,0,0,0-4.58-9.57l-1.85-.65a7.49,7.49,0,0,0-9.56,4.58l-15.34,43.5L38.48,188.37a7.5,7.5,0,0,0-1.1,10.55l1.24,1.52a7.5,7.5,0,0,0,10.55,1.1l36.7-29.76A7.8,7.8,0,0,0,88.06,169.88Z"/><path d="M239.24,188.37l-35.68-28.94-15.33-43.5a7.5,7.5,0,0,0-9.57-4.58l-1.85.65a7.51,7.51,0,0,0-4.58,9.57l15.55,44.11a7.51,7.51,0,0,0,1.89,4.2,7.76,7.76,0,0,0,2.18,1.9l36.71,29.76a7.5,7.5,0,0,0,10.55-1.1l1.23-1.52A7.5,7.5,0,0,0,239.24,188.37Z"/><path d="M206,186.93a10.6,10.6,0,0,0-14.38-4.27l-53.84,29.17L83.89,182.66a10.6,10.6,0,0,0-14.38,4.27l-1.32,2.44a10.61,10.61,0,0,0,4.27,14.38l55.1,29.86a10.55,10.55,0,0,0,10.17-.05,10.57,10.57,0,0,0,10.18.05L203,203.75a10.61,10.61,0,0,0,4.27-14.38Z"/><rect x="47.73" y="230.47" width="178.38" height="4"/></svg>