<svg id="圖層_1" data-name="圖層 1" xmlns="http://www.w3.org/2000/svg" viewBox="0 0 283.46 283.46"><defs><style>.cls-1{fill:none;stroke:#6a65d8;stroke-miterlimit:10;stroke-width:3px;}</style></defs><title>ICON</title><path class="cls-1" d="M83.42,131.9a38.17,38.17,0,0,1-.75,4.25,99.81,99.81,0,0,0-2.12,19.67c0,14.23,6.48,24.44,16.94,31.21"/><path class="cls-1" d="M190.73,183.47c7.31-6.62,11.59-15.72,11.59-27.65a91.78,91.78,0,0,0-1.83-17,58.25,58.25,0,0,1-1.07-6.8"/><path class="cls-1" d="M83.16,133.69a13,13,0,1,0-3,25.59"/><path class="cls-1" d="M202.32,159.28A13,13,0,1,0,200,133.55"/><path class="cls-1" d="M163.35,200.49H121.84a30.64,30.64,0,0,1-30.55-30.56V154.5a8,8,0,0,1,8-8S130.35,140,143.78,140s42.16,6.51,42.16,6.51a8,8,0,0,1,8,8v15.43A30.65,30.65,0,0,1,163.35,200.49Z"/><line class="cls-1" x1="93.04" y1="149.53" x2="83.03" y2="134.42"/><line class="cls-1" x1="190.28" y1="148.63" x2="199.34" y2="132.93"/><line class="cls-1" x1="97.49" y1="160.81" x2="186.92" y2="160.81"/><line class="cls-1" x1="104.68" y1="174.21" x2="179.73" y2="174.21"/><line class="cls-1" x1="111.99" y1="188.27" x2="172.42" y2="188.27"/><path class="cls-1" d="M83.31,132.73c-1.41-1.89-3.28-3.11-2.42-5.31a28.84,28.84,0,0,1,8.61-11.77,26.64,26.64,0,0,1-5.93,2.09,35.91,35.91,0,0,1,10.51-16.63A9.46,9.46,0,0,1,99,98.43c1.39-.17,2.94.18,4.11-.6l-8.88-3.58c-.38-.16-.85-.51-.67-.88q18.66.06,37.3,1.31a16.46,16.46,0,0,1,9.72,3.91c7-3.57,15-4.2,22.86-4.27,9.26-.09,18.8.58,27.15,4.58a7,7,0,0,1-4.41,1.58,1.36,1.36,0,0,0-1,.22c-.54.51.14,1.36.77,1.75,3.63,2.3,7.47,4.34,10.71,7.17a28,28,0,0,1,8.61,13.91l-7.41-3.12c-.89.73-.77,2.1-.53,3.23.63,3,.78,5.75,1.87,8.61"/><path class="cls-1" d="M73.13,134.78c-2.95-6.84-2.19-15.2-2.91-22.62L62,118.68c.55-4.64.1-9.34.1-14s.52-9.51,2.81-13.59c2.72-4.83,7.67-8.11,10.43-12.92a1.61,1.61,0,0,0,.29-1c-.12-.83-1.26-.93-2.09-.85A38.52,38.52,0,0,1,63.26,76,91,91,0,0,1,88.89,62.4a24.88,24.88,0,0,1-.8-14.71,1.18,1.18,0,0,1,.38-.72c.46-.34,1.08.07,1.49.47a44.83,44.83,0,0,1,8.1,10.72l.52.51A130,130,0,0,1,145.67,28.4c1.37,1.81.15,4.37-1.07,6.28l-7.95,12.44c33-11.62,72.84,4.11,73.41,4.82s-27.68,0-30.83-.6c8.6,5.18,17.36,10.48,23.92,18.08A70.75,70.75,0,0,1,211,81.05c3.45,6.13,11.57,31.58,14.06,38.15-1.62-2.18-10.81-15.39-12.44-17.57,2.65,17.19.77,24.37-3,33.29"/><path class="cls-1" d="M129.28,200.49c1.25,5.22,14,60.83,14,60.83l14.5-60.83"/><polyline class="cls-1" points="132.05 212.41 143.53 200.94 154.85 212.79"/><polyline class="cls-1" points="117.56 200.94 113.73 219.32 135 225.22"/><polyline class="cls-1" points="123.99 220.86 120.78 239.24 143.45 266.49"/><polyline class="cls-1" points="168.81 200.94 172.65 219.32 151.38 225.22"/><polyline class="cls-1" points="162.38 220.86 165.59 239.24 142.92 266.49"/></svg>